# xmcd CD database file
#
# Track frame offsets:
#	150
#	4952
#	5870
#	20665
#	25245
#	27882
#	28800
#	41317
#	42167
#	56077
#	61102
#	71520
#	92345
#	105270
#	112004
#	115201
#	130894
#	144806
#	170899
#	175509
#	183554
#	187104
#	191216
#	195719
#	217306
#	222361
#	232169
#	236514
#	241086
#	253540
#	263610
#	280810
#	301879
#	319367
#	333150
#
# Disc length: 4598 seconds
#
# Revision: 4
# Processed by: cddbd v1.5.2PL0 Copyright (c) Steve Scherf et al.
# Submitted via: CDex 1.70beta2
#
DISCID=fa11f423
DTITLE=Red Elvises - Six-String Samurai
DYEAR=1998
DGENRE=Soundtrack
TTITLE0=United States Of Russia
TTITLE1=Neverland
TTITLE2=Love Pipe
TTITLE3=A Mother's Hand
TTITLE4=Fly Away Little Butterfly
TTITLE5=Kill 200 Men
TTITLE6=Boogie On The Beach
TTITLE7=I Do Not Like Rock And Roll
TTITLE8=Hungarian Dance 5
TTITLE9=Arrowed Kid
TTITLE10=Rock 'n' Rollin
TTITLE11=Lonely Highway Of Love
TTITLE12=My Darling
TTITLE13=Asto
TTITLE14=Fllow The Yellow Brick Road
TTITLE15=See You Around Kid
TTITLE16=Good Golly Miss Molly
TTITLE17=My Love Is Killing Me
TTITLE18=Sacred Funeral
TTITLE19=Relentless Sun
TTITLE20=Over The Hill
TTITLE21=Bring His Guitar To Me
TTITLE22=A Boy And His Spirit
TTITLE23=If You We Me
TTITLE24=Dragging A Fallen Hero
TTITLE25=Nice Tuxedo
TTITLE26=Bend Before The Ways of Heavy Metal
TTITLE27=Dream March
TTITLE28=The Great Battle
TTITLE29=End Of A Hero
TTITLE30=On My Way To Vegas
TTITLE31=Surfing In Siberia
TTITLE32=Don't Stop The Dance
TTITLE33=I wanna rock'n'roll
TTITLE34=Ukrainian Dance 13
EXTD=YEAR: 1998
EXTT0=
EXTT1=
EXTT2=
EXTT3=
EXTT4=
EXTT5=
EXTT6=
EXTT7=
EXTT8=
EXTT9=
EXTT10=
EXTT11=
EXTT12=
EXTT13=
EXTT14=
EXTT15=
EXTT16=
EXTT17=
EXTT18=
EXTT19=
EXTT20=
EXTT21=
EXTT22=
EXTT23=
EXTT24=
EXTT25=
EXTT26=
EXTT27=
EXTT28=
EXTT29=
EXTT30=
EXTT31=
EXTT32=
EXTT33=
EXTT34=
PLAYORDER=
